<?xml version="1.0" standalone="no"?>
<!DOCTYPE svg PUBLIC "-//W3C//DTD SVG 20010904//EN"
 "http://www.w3.org/TR/2001/REC-SVG-20010904/DTD/svg10.dtd">
<svg version="1.0" xmlns="http://www.w3.org/2000/svg"
 width="400.000000pt" height="400.000000pt" viewBox="0 0 400.000000 400.000000"
 preserveAspectRatio="xMidYMid meet">
<g transform="translate(0.000000,400.000000) scale(0.100000,-0.100000)"
fill="#aaaaaa" stroke="none">
<path d="M2096 3813 c-8 -8 -38 -13 -91 -15 -16 0 -24 -3 -17 -5 26 -10 10
-23 -22 -19 -44 6 -92 -8 -88 -24 2 -10 0 -11 -11 -2 -8 7 -16 10 -19 7 -2 -3
-38 -14 -79 -25 -41 -10 -107 -31 -147 -45 -104 -35 -86 -37 -342 41 l-45 14
25 -21 c14 -11 52 -38 85 -61 127 -88 235 -170 235 -179 0 -15 -14 -10 -40 14
-14 13 -72 56 -130 97 -58 41 -106 77 -108 82 -2 4 -10 8 -18 8 -8 0 -14 4
-14 8 0 5 -15 17 -33 27 -29 15 -39 16 -70 6 -20 -7 -37 -19 -37 -27 0 -17
-26 -19 -36 -3 -5 8 -10 6 -16 -5 -6 -11 -17 -14 -31 -11 -13 4 -36 1 -51 -5
-33 -12 -496 -14 -651 -2 -55 5 -154 8 -220 7 l-120 0 -3 -657 -2 -656 152 -1
c201 -1 390 -10 457 -21 29 -6 127 -7 216 -3 183 7 202 4 183 -27 -7 -11 -21
-20 -32 -20 -18 0 -18 -1 -3 -17 9 -11 13 -28 10 -44 -3 -15 -1 -29 4 -32 4
-3 67 -8 138 -11 72 -4 173 -9 225 -12 52 -3 92 -3 89 1 -3 3 -71 10 -150 16
-170 12 -189 15 -189 33 0 7 -7 19 -15 26 -11 9 -12 16 -5 25 8 9 8 15 0 20
-5 3 -10 15 -10 26 0 18 5 19 73 15 39 -3 182 -8 317 -10 277 -5 248 9 -50 23
l-175 8 233 -1 c246 -1 238 -3 233 44 -3 28 -65 180 -73 180 -4 0 -8 -6 -8
-14 0 -19 -26 -27 -53 -17 -24 9 -27 17 -67 161 -20 74 -23 152 -5 175 14 17
17 18 25 5 14 -21 12 -30 -5 -30 -12 0 -15 -12 -14 -52 1 -49 1 -51 11 -23 5
17 14 40 20 52 6 12 8 29 5 37 -4 9 -1 15 6 13 12 -2 25 -51 26 -98 1 -19 -5
-28 -19 -32 -23 -6 -26 -37 -8 -66 12 -19 12 -19 22 1 16 32 36 34 36 4 0 -13
4 -27 8 -30 5 -3 4 28 -1 67 -14 119 -5 202 32 294 22 55 37 80 46 77 9 -4 15
4 18 23 3 21 4 18 6 -13 2 -72 51 -64 51 8 0 27 4 38 15 38 9 0 15 -10 15 -26
0 -20 4 -25 16 -20 12 4 14 1 9 -14 -5 -16 -2 -20 19 -20 14 0 28 -4 31 -10 3
-5 -1 -10 -10 -10 -20 0 -115 -40 -115 -49 0 -3 25 -6 57 -6 63 0 80 -17 36
-34 -24 -9 -18 -10 38 -7 36 2 79 10 95 18 27 13 29 17 29 75 0 74 12 92 43
63 12 -12 22 -30 22 -40 0 -11 4 -20 9 -20 18 0 22 -40 15 -130 -6 -77 -10
-93 -31 -114 -16 -16 -22 -30 -17 -38 6 -10 5 -10 -8 0 -14 11 -21 11 -42 -3
-39 -26 -32 -40 29 -59 51 -16 55 -19 49 -42 -5 -19 -3 -23 9 -18 9 3 13 12
10 20 -7 19 12 18 32 -2 12 -12 13 -19 4 -30 -6 -8 -17 -14 -24 -14 -7 0 -16
-11 -19 -25 -4 -14 -11 -23 -16 -20 -5 3 -6 13 -3 22 5 13 1 15 -18 10 -13 -3
-57 -13 -98 -22 -81 -18 -91 -21 -91 -36 0 -6 9 -5 21 2 32 17 226 16 242 -1
10 -10 9 -12 -5 -7 -11 4 -23 -2 -33 -16 -8 -12 -23 -22 -33 -22 -23 0 -17
-50 10 -84 12 -15 15 -27 9 -29 -6 -2 -9 -8 -6 -13 3 -5 1 -18 -6 -30 -8 -17
-8 -23 1 -29 20 -12 -31 -56 -81 -71 -24 -7 -45 -13 -47 -15 -5 -3 42 -79 77
-123 28 -36 36 -56 43 -109 7 -58 6 -67 -12 -79 -12 -8 -17 -20 -13 -30 4 -11
3 -14 -5 -9 -9 5 -10 1 -3 -16 6 -16 4 -27 -5 -36 -8 -7 -12 -17 -9 -23 4 -5
1 -9 -5 -9 -7 0 -9 -7 -6 -16 4 -11 2 -15 -8 -11 -11 4 -13 -3 -12 -31 2 -20
6 -45 10 -55 10 -22 -10 -22 -83 0 -96 29 -185 97 -245 187 -14 21 -26 35 -26
30 0 -20 -22 17 -30 51 -9 40 -4 65 12 65 5 0 23 10 40 21 38 27 24 47 -22 31
-39 -14 -65 -38 -47 -45 7 -3 4 -6 -6 -6 -11 -1 -15 -6 -11 -13 4 -6 3 -9 -2
-6 -9 5 -92 -1 -534 -37 -107 -8 -305 -24 -440 -35 -135 -11 -317 -26 -405
-35 -88 -8 -163 -15 -167 -15 -5 0 -8 -168 -8 -374 0 -290 3 -375 13 -379 9
-4 9 -6 0 -6 -10 -1 -13 -121 -13 -566 l0 -565 1780 0 c1707 0 1780 1 1780 18
0 10 -5 23 -12 30 -9 9 -7 16 6 31 23 25 15 67 -15 76 -17 6 -19 12 -14 38 4
18 18 40 31 50 18 14 24 28 24 55 0 43 -7 55 -38 71 -20 11 -22 17 -17 54 4
29 2 48 -8 61 -13 17 -12 25 9 70 12 28 30 84 39 123 9 40 20 73 24 73 7 0
182 116 338 225 l72 50 1 603 0 603 -42 -5 c-24 -3 -101 -10 -173 -16 -71 -6
-233 -19 -360 -30 -126 -11 -288 -24 -360 -30 -71 -6 -179 -15 -240 -20 -322
-29 -358 -31 -367 -18 -10 16 -10 239 0 255 9 14 211 6 234 -8 19 -13 -7 -28
-36 -21 -21 5 -21 5 2 -15 22 -21 29 -43 13 -43 -5 0 -11 5 -13 12 -3 7 -7 6
-11 -5 -5 -13 -1 -17 18 -17 13 0 27 -4 30 -10 3 -5 16 -10 28 -11 12 0 17 -3
12 -5 -6 -2 -50 4 -98 15 -48 10 -87 15 -87 10 0 -5 10 -9 23 -9 12 0 29 -5
37 -10 11 -7 2 -9 -30 -6 -25 2 -51 4 -57 5 -7 1 -13 11 -14 24 -1 18 -2 17
-10 -8 -4 -16 -5 -33 -1 -36 6 -7 154 -14 177 -9 6 1 15 1 20 0 14 -3 263 0
327 5 147 11 378 25 506 31 78 4 142 10 142 14 0 4 -73 5 -162 1 -90 -3 -191
-6 -225 -6 -33 0 -59 -3 -56 -7 2 -5 -44 -9 -104 -10 -59 -1 -140 -3 -180 -3
-40 -1 -70 2 -67 6 3 5 -22 9 -54 9 -62 0 -69 5 -77 61 -1 9 -5 21 -9 28 -4 6
-1 11 6 12 26 1 134 -2 173 -6 22 -2 121 -7 220 -10 99 -4 261 -10 360 -14
127 -6 184 -5 194 3 12 9 13 6 9 -19 -3 -17 -9 -38 -13 -48 -4 -10 -3 -17 4
-17 7 0 16 10 21 23 l9 22 0 -22 c1 -34 19 -36 26 -3 4 16 11 30 17 30 6 0 7
-7 4 -15 -3 -8 -9 -22 -12 -30 -3 -8 -1 -15 5 -15 6 0 11 6 11 13 1 18 39 61
48 53 4 -4 -2 -14 -12 -22 -19 -13 -19 -14 7 -14 23 0 27 4 27 29 0 17 4 32 8
35 5 3 5 -17 2 -45 -5 -36 -3 -49 6 -49 7 0 15 10 17 23 4 19 4 18 6 -5 1 -20
6 -28 19 -28 14 0 17 9 17 47 l0 48 45 6 45 6 -42 1 c-32 2 -43 6 -43 18 0 13
8 15 40 12 l40 -4 0 237 c0 257 2 249 -56 249 -13 0 -24 6 -24 13 0 19 -61 46
-97 43 -18 -2 -34 3 -37 10 -2 6 -27 15 -55 19 -28 4 -51 11 -51 16 0 6 -10 9
-22 8 -38 -4 -108 13 -101 24 4 6 -4 8 -21 5 -14 -3 -26 -1 -26 3 0 5 -9 9
-20 9 -11 0 -20 5 -20 10 0 6 -5 10 -11 10 -6 0 -9 -7 -5 -15 4 -12 -3 -15
-30 -15 -28 0 -37 -5 -41 -20 -5 -20 -6 -20 -39 5 -18 14 -37 25 -42 25 -5 0
-21 9 -36 21 -14 11 -30 17 -36 14 -5 -3 -10 -1 -10 5 0 6 -5 8 -11 5 -5 -4
-18 0 -28 9 -10 9 -25 14 -32 11 -8 -3 -22 0 -31 7 -14 11 -16 24 -11 75 5 59
7 62 28 57 13 -3 26 -1 29 4 3 6 -31 28 -76 50 -324 156 -419 205 -444 231
-16 17 -55 44 -87 61 -32 17 -88 51 -125 77 -37 25 -104 63 -149 85 -45 21
-87 45 -93 53 -16 19 -30 19 -30 1 0 -8 -14 -15 -35 -18 -29 -3 -35 -1 -35 15
0 10 4 16 9 12 5 -3 12 -1 16 5 3 5 2 10 -4 10 -6 0 -8 7 -5 15 7 16 2 20 -10
8z m-1186 -650 c0 -5 29 -6 65 -5 l65 4 0 -45 c0 -24 -3 -78 -6 -119 l-7 -76
-57 1 c-36 1 -64 -4 -74 -12 -15 -13 -16 -4 -12 105 3 66 5 127 5 137 1 16 21
26 21 10z m397 -20 c7 -19 7 -50 -2 -118 -4 -33 -6 -72 -6 -87 1 -19 -4 -28
-14 -28 -8 0 -15 -7 -15 -15 0 -8 9 -15 20 -15 16 0 19 -4 12 -17 -5 -10 -7
-53 -5 -96 2 -47 0 -84 -7 -92 -6 -8 -8 -29 -4 -53 l6 -41 -73 5 c-41 2 -89 7
-107 10 -31 5 -32 6 -17 27 19 27 19 63 1 70 -15 6 -15 9 -19 232 0 39 0 107
1 153 l2 84 111 -3 c79 -3 113 -7 116 -16z m53 -2203 c14 23 44 -39 48 -99 6
-87 -14 -229 -41 -281 -32 -63 -94 -88 -111 -45 -3 10 0 12 11 8 10 -4 14 -2
10 4 -4 7 3 10 18 9 14 0 25 -5 25 -9 0 -15 20 4 36 35 11 22 13 33 5 41 -6 6
-11 18 -10 27 0 10 2 11 6 3 8 -22 18 -14 20 15 1 15 4 60 8 100 4 58 3 72 -7
66 -10 -5 -11 -4 0 7 14 16 16 33 2 24 -5 -3 -10 0 -10 7 0 8 5 19 10 26 7 9
7 9 -2 2 -17 -14 -28 -12 -28 4 0 21 -19 30 -35 16 -12 -10 -19 -37 -41 -148
l-5 -24 -20 25 c-17 22 -18 32 -9 71 16 72 29 94 57 94 15 0 30 8 36 18 8 14
12 15 15 5 3 -10 6 -11 12 -1z"/>
<path d="M0 2316 l0 -33 61 -7 c99 -10 880 -1 844 10 -30 10 -761 62 -877 64
-25 0 -28 -4 -28 -34z"/>
</g>
</svg>
