<?xml version="1.0" encoding="UTF-8"?>
<svg enable-background="new 0 0 60 60" version="1.1" viewBox="0 0 60 60" xml:space="preserve" xmlns="http://www.w3.org/2000/svg">
	<title>Resume Icon</title>
<path d="m38.914 0h-32.414v60h47v-45.414l-14.586-14.586zm-4.414 31c0 0.553-0.448 1-1 1h-10c-0.552 0-1-0.447-1-1s0.448-1 1-1h10c0.552 0 1 0.447 1 1zm-18.238-7.521l0.32-0.741c0.291-0.674 0.769-1.207 1.382-1.541l2.204-1.087c-0.969-0.622-1.667-1.558-2.083-2.793-0.684-0.417-1.115-1.158-1.115-1.984v-0.667c0-0.668 0.289-1.293 0.778-1.73 0.096-0.613 0.254-1.189 0.471-1.719 0.102-0.247 0.188-0.432 0.257-0.582 0.046-0.1 0.104-0.224 0.112-0.259 3e-3 -0.032-2e-3 -0.153-0.086-0.573-0.065-0.327-0.108-0.627-0.138-0.884-0.037-0.322 0.065-0.645 0.279-0.885 0.448-0.5 1.321-0.477 1.739 0.056 0.076 0.097 0.231 0.255 0.534 0.459 0.512 0.346 1.208 0.502 1.937 0.438 0.147-0.012 0.297-0.018 0.451-0.018 3.896 0 5.183 2.053 5.54 3.951 0.5 0.438 0.794 1.068 0.794 1.745v0.667c0 0.826-0.431 1.567-1.115 1.984-0.418 1.24-1.12 2.178-2.095 2.801l2.122 1.083c0.632 0.317 1.135 0.848 1.447 1.531l0.344 0.752-0.674 0.479c-1.875 1.334-4.075 2.038-6.365 2.038-2.298 0-4.505-0.709-6.384-2.052l-0.656-0.469zm3.238 7.521c0 0.26-0.11 0.52-0.29 0.71-0.19 0.18-0.44 0.29-0.71 0.29s-0.53-0.11-0.71-0.3c-0.18-0.181-0.29-0.44-0.29-0.7 0-0.261 0.11-0.521 0.29-0.71 0.36-0.36 1.05-0.37 1.42 0 0.18 0.189 0.29 0.449 0.29 0.71zm-2 5c0-0.553 0.448-1 1-1h17c0.552 0 1 0.447 1 1s-0.448 1-1 1h-17c-0.552 0-1-0.447-1-1zm5.186 11.766c-0.031 0.918-1.045 1.262-1.707 0.707-0.935-0.784-1.871-1.567-2.806-2.351-0.99-0.83 0.433-2.237 1.414-1.415 0.414 0.347 0.828 0.693 1.241 1.04 0.268-2.261 1.005-4.441 3.196-5.582 1.142-0.594 2.154 1.132 1.009 1.727-2.17 1.131-2.274 3.707-2.347 5.874zm14.951-1.507c-0.246-0.337-3.424 1.211-4.333 0.883-0.713-0.257-1.248-0.585-1.697-1.067-2.122 1.151-4.536 1.774-6.407-0.259-0.871-0.947 0.539-2.365 1.414-1.414 1.489 1.619 3.34 0.369 4.756-0.5 0.458-0.281 1.106-0.109 1.368 0.359 1.034 1.843 3.535-0.242 4.992-0.132 0.773 0.059 1.209 0.542 1.632 1.121 0.764 1.043-0.973 2.039-1.725 1.009zm3.573-9.549c-0.19 0.18-0.45 0.29-0.71 0.29s-0.52-0.11-0.71-0.29c-0.19-0.19-0.29-0.44-0.29-0.71 0-0.271 0.11-0.521 0.29-0.71 0.38-0.37 1.04-0.37 1.42 0 0.18 0.189 0.29 0.449 0.29 0.71 0 0.27-0.1 0.52-0.29 0.71zm5-0.01c-0.19 0.19-0.45 0.3-0.71 0.3s-0.52-0.11-0.71-0.29c-0.19-0.19-0.29-0.44-0.29-0.71 0-0.271 0.11-0.521 0.29-0.71 0.38-0.37 1.04-0.37 1.42 0 0.18 0.189 0.29 0.449 0.29 0.71 0 0.26-0.1 0.51-0.29 0.7zm-0.71-4.7h-7c-0.552 0-1-0.447-1-1s0.448-1 1-1h7c0.552 0 1 0.447 1 1s-0.448 1-1 1zm-8-16v-14l14 14h-14z"/>
</svg>
